{"scene":0,"scenes":[{"nodes":[0]}],"asset":{"version":"2.0","generator":"https://github.com/mikedh/trimesh"},"accessors":[{"componentType":5125,"type":"SCALAR","bufferView":0,"count":259656,"max":[44733],"min":[0]},{"componentType":5126,"type":"VEC3","byteOffset":0,"bufferView":1,"count":44734,"max":[252.18670654296875,823.0449829101562,280.5252990722656],"min":[-252.72450256347656,-0.13269999623298645,-282.5564880371094]},{"componentType":5126,"count":44734,"type":"VEC3","byteOffset":0,"bufferView":2,"max":[0.9999991059303284,0.9999971389770508,0.9999998807907104],"min":[-0.9999995231628418,-0.9999948740005493,-0.9999998807907104]}],"meshes":[{"name":"chair_obj.obj","extras":{"processed":true},"primitives":[{"attributes":{"POSITION":1,"NORMAL":2},"indices":0,"mode":4}]}],"nodes":[{"name":"world","children":[1]},{"name":"chair_obj.obj","mesh":0}],"buffers":[{"uri":"gltf_buffer_0.bin","byteLength":1038624},{"uri":"gltf_buffer_1.bin","byteLength":536808},{"uri":"gltf_buffer_2.bin","byteLength":536808}],"bufferViews":[{"buffer":0,"byteOffset":0,"byteLength":1038624},{"buffer":1,"byteOffset":0,"byteLength":536808},{"buffer":2,"byteOffset":0,"byteLength":536808}]}